<svg width="19" height="15" viewBox="0 0 19 15" fill="none" xmlns="http://www.w3.org/2000/svg">
<path d="M0.181641 7.46238L8.60156 14.0776C8.91504 14.3237 9.375 14.101 9.375 13.7055V0.475071C9.375 0.0795631 8.91504 -0.143093 8.60156 0.103001L0.181641 6.71824C0.125235 6.76247 0.0796242 6.81896 0.0482597 6.88342C0.0168953 6.94787 0.000597 7.01862 0.000597 7.09031C0.000597 7.16199 0.0168953 7.23274 0.0482597 7.29719C0.0796242 7.36165 0.125235 7.41814 0.181641 7.46238ZM9.55664 7.46238L17.9766 14.0776C18.29 14.3237 18.75 14.101 18.75 13.7055V0.478001C18.75 0.0824928 18.29 -0.140164 17.9766 0.105929L9.55664 6.72117C9.43652 6.81492 9.375 6.95554 9.375 7.09324C9.375 7.228 9.43652 7.36863 9.55664 7.46238Z" fill="#D9D9D9"/>
</svg>
